<?xml version="1.0" encoding="UTF-8"?>
<svg id="Capa_2" data-name="Capa 2" xmlns="http://www.w3.org/2000/svg" viewBox="0 0 177.58 49.79">
  <defs>
    <style>
      .cls-1 {
        fill: #2e3093;
      }
    </style>
  </defs>
  <g id="Capa_1-2" data-name="Capa 1">
    <g>
      <path class="cls-1" d="M16.57,1.74l-4.68,37.89h17.51l-1.14,9.56H0L5.81,1.74h10.76Z"/>
      <path class="cls-1" d="M48.26,16.51l-4.01,32.68h-10.02l4.01-32.68h10.03ZM38.43,6.55c0-3.41,2.54-5.88,6.22-5.88s6.01,2.41,6.01,5.68-2.54,5.95-6.21,5.95-6.02-2.47-6.02-5.75Z"/>
      <path class="cls-1" d="M65.9,16.51l-.54,4.54.13.07c2.94-3.41,6.55-5.21,10.83-5.21,6.22,0,8.75,4.14,7.55,13.3l-2.61,19.98h-9.96l2.34-17.71c.6-4.54.2-6.62-1.94-6.62-3.01,0-7.29,4.08-8.35,12.23l-1.47,12.1h-10.03l4.08-32.68h9.96Z"/>
      <path class="cls-1" d="M113.09,49.79c-5.08,0-7.49-3.88-9.29-9.36l-.6-2c-1.27.8-2.54,1.47-3.94,2.07l-1,8.69h-9.82L94.51,0h9.96l-3.74,30.41.13.07c5.41-3.81,7.95-8.62,9.29-13.97h10.36c-1.27,6.62-4.68,12.16-9.29,16.51l.94,2.81c1.47,4.68,3.21,5.48,6.15,5.68l-2.27,8.15c-.67.07-1.34.13-2.94.13Z"/>
      <path class="cls-1" d="M132.74,37.36c.6,2.94,2.74,4.14,4.68,4.14,2.21,0,4.14-.87,5.95-3.27l7.49,4.41c-3.48,4.75-7.82,7.15-14.24,7.15-8.22,0-13.7-5.21-13.63-13.7,0-11.09,6.88-20.18,17.91-20.18,5.28,0,11.23,2.87,11.16,9.02-.13,8.29-9.69,11.43-19.32,12.43ZM140.02,24.26c-2.87,0-5.81,2.54-6.95,7.08,4.88-.53,9.29-1.8,9.36-5.01.07-1.34-.87-2.07-2.41-2.07Z"/>
      <path class="cls-1" d="M168.69,16.51l-.6,4.48h.13c2.54-3.34,5.75-5.08,9.36-5.08l-1.4,11.09c-4.81-1.74-8.82,1.87-10.02,9.62l-1.47,12.56h-10.03l4.01-32.68h10.02Z"/>
    </g>
  </g>
</svg>