<?xml version="1.0" encoding="iso-8859-1"?>
<!-- Uploaded to: SVG Repo, www.svgrepo.com, Generator: SVG Repo Mixer Tools -->
<svg height="800px" width="800px" version="1.1" id="Layer_1" xmlns="http://www.w3.org/2000/svg" xmlns:xlink="http://www.w3.org/1999/xlink" 
	 viewBox="0 0 512 512" xml:space="preserve">
<polygon points="512,384.552 0,384.552 0,401.488 25.6,425.12 486.4,425.12 512,401.488 "/>
<path style="fill:#FFFFFF;" d="M48,384.552v-277.6c0-6.64,5.4-12.072,12-12.072h392c6.6,0,12,5.432,12,12.072v277.6"/>
<path d="M472,384.552h-16V106.96c0-2.2-1.832-4.08-4-4.08H60c-2.168,0-4,1.872-4,4.08v277.592H40V106.96
	c0-11.08,8.968-20.08,20-20.08h392c11.032,0,20,9,20,20.08V384.552z"/>
<polygon style="fill:#13B7E6;" points="303.024,401.384 208.976,401.384 192.976,384.552 319.024,384.552 "/>
<circle cx="256" cy="183.832" r="49.88"/>
<path d="M253.64,349.64l-48.192-104.472c0,0-50.552,0.672-50.552,47.184s0,57.288,0,57.288S253.976,349.64,253.64,349.64z"/>
<path d="M258.36,349.64l48.192-104.472c0,0,50.552,0.672,50.552,47.184s0,57.288,0,57.288S258.024,349.64,258.36,349.64z"/>
<polygon style="fill:#FF583E;" points="256,245.168 221.288,245.168 256,322 290.712,245.168 "/>
</svg>